<svg xmlns="http://www.w3.org/2000/svg" width="24" height="24" viewBox="0 0 24 24">
  <path id="Union_6" data-name="Union 6" d="M-1986,24a4,4,0,0,1-4-4V17a4,4,0,0,1,4-4h3a4,4,0,0,1,4,4v3a4,4,0,0,1-4,4Zm-2-7v3a2,2,0,0,0,2,2h3a2,2,0,0,0,2-2V17a2,2,0,0,0-2-2h-3A2,2,0,0,0-1988,17Zm14.881,6.047-2.588-2.583a1,1,0,0,1,0-1.415,1,1,0,0,1,1.415,0l2.293,2.29V2.633l-2.293,2.29a1,1,0,0,1-1.415,0,1,1,0,0,1,0-1.414l2.588-2.583a3,3,0,0,1,4.24,0l2.587,2.583a1,1,0,0,1,0,1.414,1,1,0,0,1-1.415,0L-1970,2.633V21.339l2.293-2.29a1,1,0,0,1,1.415,0,1,1,0,0,1,0,1.415l-2.587,2.583a2.992,2.992,0,0,1-2.12.877A2.989,2.989,0,0,1-1973.12,23.047ZM-1986,11a4,4,0,0,1-4-4V4a4,4,0,0,1,4-4h3a4,4,0,0,1,4,4V7a4,4,0,0,1-4,4Zm-2-7V7a2,2,0,0,0,2,2h3a2,2,0,0,0,2-2V4a2,2,0,0,0-2-2h-3A2,2,0,0,0-1988,4Z" transform="translate(1990)" fill="white"/>
</svg>
