<svg xmlns="http://www.w3.org/2000/svg" width="24.001" height="23.999" viewBox="0 0 24.001 23.999">
  <path id="Union_12" data-name="Union 12" d="M-5970,12a12,12,0,0,1,12-12,12.014,12.014,0,0,1,12,12,12,12,0,0,1-12,12A12,12,0,0,1-5970,12Zm2,0a10,10,0,0,0,10,10,10.012,10.012,0,0,0,10-10,10,10,0,0,0-10-10A10,10,0,0,0-5968,12Zm9,6a1,1,0,0,1,1-1,1,1,0,0,1,1,1,1,1,0,0,1-1,1A1,1,0,0,1-5959,18Zm0-4V6a1,1,0,0,1,1-1,1,1,0,0,1,1,1v8a1,1,0,0,1-1,1A1,1,0,0,1-5959,14Z" transform="translate(5970)" fill="#60df00"/>
</svg>
