<svg xmlns="http://www.w3.org/2000/svg" width="24" height="24" viewBox="0 0 24 24">
  <path id="Union_10" data-name="Union 10" d="M-3976.264,21.25H-3979a1,1,0,0,1-1-1,1,1,0,0,1,1-1h2.737a3.727,3.727,0,0,1,3.6-2.75,3.728,3.728,0,0,1,3.6,2.75H-3957a1,1,0,0,1,1,1,1,1,0,0,1-1,1h-12.069a3.728,3.728,0,0,1-3.6,2.75A3.727,3.727,0,0,1-3976.264,21.25Zm1.847-1a1.75,1.75,0,0,0,1.75,1.75,1.753,1.753,0,0,0,1.75-1.75,1.75,1.75,0,0,0-1.75-1.75A1.75,1.75,0,0,0-3974.417,20.251ZM-3966.93,13H-3979a1,1,0,0,1-1-1,1,1,0,0,1,1-1h12.07a3.727,3.727,0,0,1,3.6-2.751,3.727,3.727,0,0,1,3.6,2.751H-3957a1,1,0,0,1,1,1,1,1,0,0,1-1,1h-2.736a3.728,3.728,0,0,1-3.6,2.752A3.728,3.728,0,0,1-3966.93,13Zm1.847-1a1.75,1.75,0,0,0,1.75,1.75,1.751,1.751,0,0,0,1.75-1.75,1.749,1.749,0,0,0-1.75-1.75A1.75,1.75,0,0,0-3965.083,12Zm-11.18-7.25H-3979a1,1,0,0,1-1-1,1,1,0,0,1,1-1h2.737a3.727,3.727,0,0,1,3.6-2.75,3.728,3.728,0,0,1,3.6,2.75H-3957a1,1,0,0,1,1,1,1,1,0,0,1-1,1h-12.069a3.728,3.728,0,0,1-3.6,2.75A3.727,3.727,0,0,1-3976.264,4.751Zm1.847-1a1.75,1.75,0,0,0,1.75,1.75,1.751,1.751,0,0,0,1.75-1.75,1.75,1.75,0,0,0-1.75-1.75A1.751,1.751,0,0,0-3974.417,3.751Z" transform="translate(3980)" fill="#AFE8F2"/>
</svg>
