<svg xmlns="http://www.w3.org/2000/svg" width="24" height="18.857" viewBox="0 0 24 18.857">
  <g id="transfer_1_" data-name="transfer(1)" transform="translate(0 -51.198)">
    <g id="Group_16" data-name="Group 16" transform="translate(0 51.198)">
      <path id="Path_162" data-name="Path 162" d="M23.749,57.449l-6-6a.857.857,0,0,0-1.463.606v2.571h-6a.857.857,0,0,0,0,1.714h6.857A.857.857,0,0,0,18,55.484v-1.36l3.931,3.931L18,61.986V60.627a.857.857,0,0,0-.857-.857H7.714V57.2a.857.857,0,0,0-1.463-.606l-6,6a.857.857,0,0,0,0,1.212l6,6a.857.857,0,0,0,.606.251.846.846,0,0,0,.328-.065.857.857,0,0,0,.529-.792V66.627h6a.857.857,0,0,0,0-1.714H6.857A.857.857,0,0,0,6,65.77v1.359L2.069,63.2,6,59.267v1.359a.857.857,0,0,0,.857.857h9.429v2.571a.857.857,0,0,0,1.463.606l6-6A.857.857,0,0,0,23.749,57.449Z" transform="translate(0 -51.198)" fill="#959595"/>
    </g>
  </g>
</svg>
