<svg xmlns="http://www.w3.org/2000/svg" width="30" height="30" viewBox="0 0 30 30">
  <g id="Group_32" data-name="Group 32" transform="translate(-101 -104)">
    <circle id="Ellipse_17" data-name="Ellipse 17" cx="15" cy="15" r="15" transform="translate(101 104)" fill="#60df00"/>
    <path id="Union_13" data-name="Union 13" d="M0,10A10,10,0,1,1,10,20,10.022,10.022,0,0,1,0,10Zm1.172,0A8.828,8.828,0,1,0,10,1.172,8.838,8.838,0,0,0,1.172,10ZM8.5,17.515A7.543,7.543,0,0,1,5.7,16.35a1.679,1.679,0,0,1-.731-1.318A1.68,1.68,0,0,1,3.65,14.3a7.743,7.743,0,0,1-1.165-2.838A1.688,1.688,0,0,1,2.9,10a1.688,1.688,0,0,1-.417-1.462A7.743,7.743,0,0,1,3.65,5.7a1.679,1.679,0,0,1,1.319-.731A1.679,1.679,0,0,1,5.7,3.65,7.544,7.544,0,0,1,8.5,2.485,1.734,1.734,0,0,1,9.99,2.91a1.69,1.69,0,0,1,1.472-.425A7.744,7.744,0,0,1,14.3,3.65a1.679,1.679,0,0,1,.731,1.319A1.678,1.678,0,0,1,16.35,5.7a7.742,7.742,0,0,1,1.165,2.838A1.688,1.688,0,0,1,17.1,10a1.688,1.688,0,0,1,.417,1.462A7.742,7.742,0,0,1,16.35,14.3a1.68,1.68,0,0,1-1.319.732A1.679,1.679,0,0,1,14.3,16.35a7.743,7.743,0,0,1-2.838,1.165A1.69,1.69,0,0,1,9.99,17.09a1.753,1.753,0,0,1-1.17.456A1.681,1.681,0,0,1,8.5,17.515Zm2.087-1.736a.577.577,0,0,0,.652.586,6.561,6.561,0,0,0,2.405-.985.573.573,0,0,0,.041-.868l-3.1-3.1Zm-4.27-1.267a.573.573,0,0,0,.041.868,6.378,6.378,0,0,0,2.366.985.609.609,0,0,0,.691-.586V11.415ZM3.635,11.238a6.562,6.562,0,0,0,.985,2.405.573.573,0,0,0,.868.041l3.1-3.1H4.221A.578.578,0,0,0,3.635,11.238Zm10.878,2.446a.573.573,0,0,0,.868-.041,6.562,6.562,0,0,0,.985-2.405.578.578,0,0,0-.586-.652H11.415Zm0-7.368-3.1,3.1h4.364a.578.578,0,0,0,.586-.652,6.561,6.561,0,0,0-.985-2.405.513.513,0,0,0-.434-.219A.618.618,0,0,0,14.512,6.316ZM4.62,6.357a6.561,6.561,0,0,0-.985,2.405.578.578,0,0,0,.586.652H8.585l-3.1-3.1a.619.619,0,0,0-.435-.178A.512.512,0,0,0,4.62,6.357Zm5.966-2.136V8.585l3.1-3.1a.573.573,0,0,0-.041-.868,6.562,6.562,0,0,0-2.405-.985.5.5,0,0,0-.1-.009A.589.589,0,0,0,10.586,4.221ZM8.723,3.635a6.378,6.378,0,0,0-2.366.985.573.573,0,0,0-.041.868l3.1,3.1V4.221a.616.616,0,0,0-.595-.6A.5.5,0,0,0,8.723,3.635Z" transform="translate(106 109)" fill="#fff"/>
  </g>
</svg>
