<svg xmlns="http://www.w3.org/2000/svg" width="24" height="24" viewBox="0 0 24 24">
  <path id="Union_7" data-name="Union 7" d="M-1971,24a3,3,0,0,1-3-2.986l-2.007-.014a1,1,0,0,1-1-1,1,1,0,0,1,1-1h.007l1.994.014V19a3,3,0,0,1,3-3h.007l.013-2.007a1,1,0,0,1,1-.994h.006a1,1,0,0,1,.995,1.006l-.014,1.994A3,3,0,0,1-1966,19v2a3,3,0,0,1-3,3Zm-1-5v2a1,1,0,0,0,1,1h2a1,1,0,0,0,1-1V19a1,1,0,0,0-1-1h-2A1,1,0,0,0-1972,19Zm-15,5a3,3,0,0,1-3-3V19a3,3,0,0,1,2.986-3l.014-2.007a1,1,0,0,1,1-.994h.007a1,1,0,0,1,.993,1.007l-.013,1.993h.013a3,3,0,0,1,3,3v.007l2.007.014a1,1,0,0,1,1,1,1,1,0,0,1-1,1h-.006l-1.994-.014A3,3,0,0,1-1985,24Zm-1-5v2a1,1,0,0,0,1,1h2a1,1,0,0,0,1-1V19a1,1,0,0,0-1-1h-2A1,1,0,0,0-1988,19Zm17.993-8A1,1,0,0,1-1971,9.993l.014-1.993H-1971a3,3,0,0,1-3-3V4.993l-2.007-.014a1,1,0,0,1-1-1,1,1,0,0,1,1-1h.006l1.994.014A3,3,0,0,1-1971,0h2a3,3,0,0,1,3,3V5a3,3,0,0,1-2.986,3l-.014,2.007a1,1,0,0,1-1,.993ZM-1972,3V5a1,1,0,0,0,1,1h2a1,1,0,0,0,1-1V3a1,1,0,0,0-1-1h-2A1,1,0,0,0-1972,3Zm-14.027,8a1,1,0,0,1-.706-.3,1,1,0,0,1-.288-.71l.014-1.993A3,3,0,0,1-1990,5V3a3,3,0,0,1,3-3h2a3,3,0,0,1,3,2.986l2.007.013a1,1,0,0,1,1,1,1,1,0,0,1-1,1h-.007L-1982,4.986V5a3,3,0,0,1-3,3h-.006l-.014,2.007a1,1,0,0,1-1,.993ZM-1988,3V5a1,1,0,0,0,1,1h2a1,1,0,0,0,1-1V3a1,1,0,0,0-1-1h-2A1,1,0,0,0-1988,3Z" transform="translate(1990)" fill="#959595"/>
</svg>
