<svg id="transfer_1_" data-name="transfer(1)" xmlns="http://www.w3.org/2000/svg" width="31.429" height="40" viewBox="0 0 31.429 40">
  <g id="transfer_1_2" data-name="transfer(1)" transform="translate(82.627 0) rotate(90)">
    <g id="Group_16" data-name="Group 16" transform="translate(0 51.198)">
      <path id="Path_162" data-name="Path 162" d="M39.582,61.617l-10-10a1.429,1.429,0,0,0-2.439,1.01v4.286h-10a1.429,1.429,0,0,0,0,2.857H28.571A1.429,1.429,0,0,0,30,58.341V56.075l6.552,6.552L30,69.178V66.912a1.429,1.429,0,0,0-1.429-1.429H12.857V61.2a1.429,1.429,0,0,0-2.439-1.01l-10,10a1.428,1.428,0,0,0,0,2.02l10,10a1.429,1.429,0,0,0,1.01.419,1.411,1.411,0,0,0,.547-.109,1.429,1.429,0,0,0,.881-1.32V76.913h10a1.429,1.429,0,0,0,0-2.857H11.428A1.429,1.429,0,0,0,10,75.484V77.75L3.448,71.2,10,64.647v2.266a1.429,1.429,0,0,0,1.429,1.429H27.143v4.286a1.429,1.429,0,0,0,2.439,1.01l10-10A1.429,1.429,0,0,0,39.582,61.617Z" transform="translate(0 -51.198)" fill="#AFE8F2"/>
    </g>
  </g>
</svg>
