<svg xmlns="http://www.w3.org/2000/svg" width="18" height="24" viewBox="0 0 18 24">
  <path id="Union_29" data-name="Union 29" d="M-1950.13,24a2.021,2.021,0,0,1-1.941-1.533A2,2,0,0,0-1954,21a2,2,0,0,0-1.929,1.471A2.021,2.021,0,0,1-1957.87,24H-1960a3,3,0,0,1-3-3V5a5.007,5.007,0,0,1,5-5h.13a2.021,2.021,0,0,1,1.941,1.532A2,2,0,0,0-1954,3a2,2,0,0,0,1.929-1.472A2.021,2.021,0,0,1-1950.13,0h.13a5.007,5.007,0,0,1,5,5V21a3,3,0,0,1-3,3Zm-.013-2.064L-1948,22a1,1,0,0,0,1-1V17h-2a1,1,0,0,1-1-1,1,1,0,0,1,1-1h2V5a3,3,0,0,0-3-3h-.107A4.071,4.071,0,0,1-1954,5a4.011,4.011,0,0,1-3.857-2.938L-1958,2a3,3,0,0,0-3,3V15h2a1,1,0,0,1,1,1,1,1,0,0,1-1,1h-2v4a1,1,0,0,0,1,1h2.13a4,4,0,0,1,3.839-3h.034A4,4,0,0,1-1950.143,21.937ZM-1955,17a1,1,0,0,1-1-1,1,1,0,0,1,1-1h2a1,1,0,0,1,1,1,1,1,0,0,1-1,1Z" transform="translate(1963)" fill="#959595"/>
</svg>
